name p2_grf_mean_speed_1.8
datacolumns 13
datarows 68
range 0.0000000000 0.6700000000
endheader
time	grf_x_l_mean	grf_x_l_var	grf_y_l_mean	grf_y_l_var	grf_z_l_mean	grf_z_l_var	grf_x_r_mean	grf_x_r_var	grf_y_r_mean	grf_y_r_var	grf_z_r_mean	grf_z_r_var
0.0000000000	186.2831882844	1.0000000000	725.7911137104	1.0000000000	0.0000000000	0.0000000000	14.9221322481	1.0000000000	11.2440278409	1.0000000000	0.0000000000	0.0000000000
0.0100000000	192.7046183168	1.0000000000	705.2217506542	1.0000000000	0.0000000000	0.0000000000	25.2520653353	1.0000000000	44.0910202580	1.0000000000	0.0000000000	0.0000000000
0.0200000000	194.0203314920	1.0000000000	668.6245267296	1.0000000000	0.0000000000	0.0000000000	35.9460920551	1.0000000000	94.9197392958	1.0000000000	0.0000000000	0.0000000000
0.0300000000	189.7133416951	1.0000000000	616.4304561516	1.0000000000	0.0000000000	0.0000000000	41.1754041898	1.0000000000	160.7862040249	1.0000000000	0.0000000000	0.0000000000
0.0400000000	178.5418163654	1.0000000000	549.6567670250	1.0000000000	0.0000000000	0.0000000000	33.0109792832	1.0000000000	235.6780594696	1.0000000000	0.0000000000	0.0000000000
0.0500000000	159.4040992894	1.0000000000	471.2810040300	1.0000000000	0.0000000000	0.0000000000	11.6392911856	1.0000000000	317.5182495549	1.0000000000	0.0000000000	0.0000000000
0.0600000000	135.5346931447	1.0000000000	387.4746364624	1.0000000000	0.0000000000	0.0000000000	-16.1018978058	1.0000000000	406.9631769554	1.0000000000	0.0000000000	0.0000000000
0.0700000000	109.3822974659	1.0000000000	304.5435762646	1.0000000000	0.0000000000	0.0000000000	-48.1515918294	1.0000000000	499.7828865575	1.0000000000	0.0000000000	0.0000000000
0.0800000000	80.8964892327	1.0000000000	226.5613477588	1.0000000000	0.0000000000	0.0000000000	-83.8818408633	1.0000000000	587.2851515106	1.0000000000	0.0000000000	0.0000000000
0.0900000000	54.6005397374	1.0000000000	157.5500694489	1.0000000000	0.0000000000	0.0000000000	-118.3356411376	1.0000000000	663.9855129991	1.0000000000	0.0000000000	0.0000000000
0.1000000000	33.8675606689	1.0000000000	102.0481261181	1.0000000000	0.0000000000	0.0000000000	-146.8300268978	1.0000000000	729.9348674173	1.0000000000	0.0000000000	0.0000000000
0.1100000000	18.2645154636	1.0000000000	60.6499076065	1.0000000000	0.0000000000	0.0000000000	-169.7777196588	1.0000000000	785.5774374748	1.0000000000	0.0000000000	0.0000000000
0.1200000000	7.8703888368	1.0000000000	30.0424651481	1.0000000000	0.0000000000	0.0000000000	-186.1251197595	1.0000000000	829.1672779753	1.0000000000	0.0000000000	0.0000000000
0.1300000000	2.7410396290	1.0000000000	9.1762608010	1.0000000000	0.0000000000	0.0000000000	-192.7425734766	1.0000000000	860.0778027227	1.0000000000	0.0000000000	0.0000000000
0.1400000000	0.0000000000	1.0000000000	0.0000000000	1.0000000000	0.0000000000	0.0000000000	-190.7691249599	1.0000000000	879.1795084510	1.0000000000	0.0000000000	0.0000000000
0.1500000000	0.0000000000	1.0000000000	0.0000000000	1.0000000000	0.0000000000	0.0000000000	-183.3028578030	1.0000000000	885.8432584940	1.0000000000	0.0000000000	0.0000000000
0.1600000000	0.0000000000	1.0000000000	0.0000000000	1.0000000000	0.0000000000	0.0000000000	-170.3651604127	1.0000000000	878.2911932081	1.0000000000	0.0000000000	0.0000000000
0.1700000000	0.0000000000	1.0000000000	0.0000000000	1.0000000000	0.0000000000	0.0000000000	-152.8457980584	1.0000000000	857.3189567565	1.0000000000	0.0000000000	0.0000000000
0.1800000000	0.0000000000	1.0000000000	0.0000000000	1.0000000000	0.0000000000	0.0000000000	-134.4151152722	1.0000000000	826.5406347916	1.0000000000	0.0000000000	0.0000000000
0.1900000000	0.0000000000	1.0000000000	0.0000000000	1.0000000000	0.0000000000	0.0000000000	-115.8500906951	1.0000000000	788.1677557519	1.0000000000	0.0000000000	0.0000000000
0.2000000000	0.0000000000	1.0000000000	0.0000000000	1.0000000000	0.0000000000	0.0000000000	-96.7911152722	1.0000000000	742.3632075968	1.0000000000	0.0000000000	0.0000000000
0.2100000000	0.0000000000	1.0000000000	0.0000000000	1.0000000000	0.0000000000	0.0000000000	-79.0158915669	1.0000000000	690.0017358993	1.0000000000	0.0000000000	0.0000000000
0.2200000000	0.0000000000	1.0000000000	0.0000000000	1.0000000000	0.0000000000	0.0000000000	-63.6810486880	1.0000000000	633.3250073005	1.0000000000	0.0000000000	0.0000000000
0.2300000000	0.0000000000	1.0000000000	0.0000000000	1.0000000000	0.0000000000	0.0000000000	-49.5635096173	1.0000000000	575.0689502653	1.0000000000	0.0000000000	0.0000000000
0.2400000000	0.0000000000	1.0000000000	0.0000000000	1.0000000000	0.0000000000	0.0000000000	-36.9661534120	1.0000000000	517.7673983425	1.0000000000	0.0000000000	0.0000000000
0.2500000000	0.0000000000	1.0000000000	0.0000000000	1.0000000000	0.0000000000	0.0000000000	-27.2171525438	1.0000000000	463.4780584073	1.0000000000	0.0000000000	0.0000000000
0.2600000000	0.0000000000	1.0000000000	0.0000000000	1.0000000000	0.0000000000	0.0000000000	-19.2942617202	1.0000000000	414.0151333819	1.0000000000	0.0000000000	0.0000000000
0.2700000000	0.0000000000	1.0000000000	0.0000000000	1.0000000000	0.0000000000	0.0000000000	-12.3899935462	1.0000000000	371.0991551317	1.0000000000	0.0000000000	0.0000000000
0.2800000000	0.0000000000	1.0000000000	0.0000000000	1.0000000000	0.0000000000	0.0000000000	-7.0749460768	1.0000000000	335.9437761852	1.0000000000	0.0000000000	0.0000000000
0.2900000000	0.0000000000	1.0000000000	0.0000000000	1.0000000000	0.0000000000	0.0000000000	-3.3100981425	1.0000000000	309.1509661776	1.0000000000	0.0000000000	0.0000000000
0.3000000000	0.0000000000	1.0000000000	0.0000000000	1.0000000000	0.0000000000	0.0000000000	-0.3373136079	1.0000000000	291.0504414674	1.0000000000	0.0000000000	0.0000000000
0.3100000000	0.0000000000	1.0000000000	0.0000000000	1.0000000000	0.0000000000	0.0000000000	1.9736786580	1.0000000000	281.0681320047	1.0000000000	0.0000000000	0.0000000000
0.3200000000	0.0000000000	1.0000000000	0.0000000000	1.0000000000	0.0000000000	0.0000000000	3.8474329944	1.0000000000	277.7141543109	1.0000000000	0.0000000000	0.0000000000
0.3300000000	0.0000000000	1.0000000000	0.0000000000	1.0000000000	0.0000000000	0.0000000000	5.7953541699	1.0000000000	280.2730920084	1.0000000000	0.0000000000	0.0000000000
0.3400000000	0.0000000000	1.0000000000	0.0000000000	1.0000000000	0.0000000000	0.0000000000	7.8208530821	1.0000000000	288.7351719032	1.0000000000	0.0000000000	0.0000000000
0.3500000000	0.0000000000	1.0000000000	0.0000000000	1.0000000000	0.0000000000	0.0000000000	10.2854984757	1.0000000000	302.2580320071	1.0000000000	0.0000000000	0.0000000000
0.3600000000	0.0000000000	1.0000000000	0.0000000000	1.0000000000	0.0000000000	0.0000000000	14.0552202549	1.0000000000	319.7239820978	1.0000000000	0.0000000000	0.0000000000
0.3700000000	0.0000000000	1.0000000000	0.0000000000	1.0000000000	0.0000000000	0.0000000000	19.1308831747	1.0000000000	340.9797382083	1.0000000000	0.0000000000	0.0000000000
0.3800000000	0.0000000000	1.0000000000	0.0000000000	1.0000000000	0.0000000000	0.0000000000	25.2513327214	1.0000000000	366.2844265270	1.0000000000	0.0000000000	0.0000000000
0.3900000000	0.0000000000	1.0000000000	0.0000000000	1.0000000000	0.0000000000	0.0000000000	33.0475734063	1.0000000000	395.6800855528	1.0000000000	0.0000000000	0.0000000000
0.4000000000	0.0000000000	1.0000000000	0.0000000000	1.0000000000	0.0000000000	0.0000000000	42.5127319817	1.0000000000	429.2017333925	1.0000000000	0.0000000000	0.0000000000
0.4100000000	0.0000000000	1.0000000000	0.0000000000	1.0000000000	0.0000000000	0.0000000000	53.0598148710	1.0000000000	466.2477117297	1.0000000000	0.0000000000	0.0000000000
0.4200000000	0.0000000000	1.0000000000	0.0000000000	1.0000000000	0.0000000000	0.0000000000	64.7716807432	1.0000000000	505.1920260759	1.0000000000	0.0000000000	0.0000000000
0.4300000000	0.0000000000	1.0000000000	0.0000000000	1.0000000000	0.0000000000	0.0000000000	77.5809986340	1.0000000000	544.6105808545	1.0000000000	0.0000000000	0.0000000000
0.4400000000	0.0000000000	1.0000000000	0.0000000000	1.0000000000	0.0000000000	0.0000000000	90.7471896217	1.0000000000	583.5439616462	1.0000000000	0.0000000000	0.0000000000
0.4500000000	0.0000000000	1.0000000000	0.0000000000	1.0000000000	0.0000000000	0.0000000000	104.1405949915	1.0000000000	619.9550959337	1.0000000000	0.0000000000	0.0000000000
0.4600000000	0.0000000000	1.0000000000	0.0000000000	1.0000000000	0.0000000000	0.0000000000	118.0231359966	1.0000000000	650.6279455108	1.0000000000	0.0000000000	0.0000000000
0.4700000000	0.0000000000	1.0000000000	0.0000000000	1.0000000000	0.0000000000	0.0000000000	131.6309510525	1.0000000000	673.2369517354	1.0000000000	0.0000000000	0.0000000000
0.4800000000	0.0000000000	1.0000000000	0.0000000000	1.0000000000	0.0000000000	0.0000000000	144.2190011033	1.0000000000	686.9165527081	1.0000000000	0.0000000000	0.0000000000
0.4900000000	13.3114374604	1.0000000000	9.4904245738	1.0000000000	0.0000000000	0.0000000000	155.8115009157	1.0000000000	690.3936315156	1.0000000000	0.0000000000	0.0000000000
0.5000000000	22.8943830042	1.0000000000	40.0049103499	1.0000000000	0.0000000000	0.0000000000	165.7001692800	1.0000000000	681.3849272028	1.0000000000	0.0000000000	0.0000000000
0.5100000000	33.3413679780	1.0000000000	86.9047844506	1.0000000000	0.0000000000	0.0000000000	172.5072395858	1.0000000000	658.3115169866	1.0000000000	0.0000000000	0.0000000000
0.5200000000	40.2382845532	1.0000000000	148.1551496080	1.0000000000	0.0000000000	0.0000000000	175.5915618526	1.0000000000	621.0006159644	1.0000000000	0.0000000000	0.0000000000
0.5300000000	37.7540800758	1.0000000000	217.3354887915	1.0000000000	0.0000000000	0.0000000000	173.9747826857	1.0000000000	569.8176962040	1.0000000000	0.0000000000	0.0000000000
0.5400000000	23.1578085805	1.0000000000	289.6485912524	1.0000000000	0.0000000000	0.0000000000	166.0558423161	1.0000000000	505.9693329301	1.0000000000	0.0000000000	0.0000000000
0.5500000000	-0.0501285983	1.0000000000	366.0907685039	1.0000000000	0.0000000000	0.0000000000	152.2812675473	1.0000000000	432.7613953887	1.0000000000	0.0000000000	0.0000000000
0.5600000000	-27.9886867930	1.0000000000	447.7698789597	1.0000000000	0.0000000000	0.0000000000	133.8760914535	1.0000000000	354.8050388867	1.0000000000	0.0000000000	0.0000000000
0.5700000000	-60.0982875740	1.0000000000	530.3213409582	1.0000000000	0.0000000000	0.0000000000	110.7286688953	1.0000000000	276.1920462415	1.0000000000	0.0000000000	0.0000000000
0.5800000000	-94.9382269367	1.0000000000	607.7321619724	1.0000000000	0.0000000000	0.0000000000	85.2071809587	1.0000000000	201.4093498127	1.0000000000	0.0000000000	0.0000000000
0.5900000000	-128.4931321504	1.0000000000	678.2450084347	1.0000000000	0.0000000000	0.0000000000	61.2751500483	1.0000000000	136.3617317203	1.0000000000	0.0000000000	0.0000000000
0.6000000000	-158.1357916476	1.0000000000	742.6439637777	1.0000000000	0.0000000000	0.0000000000	40.2174937324	1.0000000000	85.1183476420	1.0000000000	0.0000000000	0.0000000000
0.6100000000	-182.3099682220	1.0000000000	799.5831976545	1.0000000000	0.0000000000	0.0000000000	22.7786377391	1.0000000000	46.9013897488	1.0000000000	0.0000000000	0.0000000000
0.6200000000	-198.0072070134	1.0000000000	846.0266395636	1.0000000000	0.0000000000	0.0000000000	11.0435857256	1.0000000000	19.4600648839	1.0000000000	0.0000000000	0.0000000000
0.6300000000	-203.5845954353	1.0000000000	879.9761819005	1.0000000000	0.0000000000	0.0000000000	4.8268202045	1.0000000000	2.6315314490	1.0000000000	0.0000000000	0.0000000000
0.6400000000	-199.9846656560	1.0000000000	900.2224537169	1.0000000000	0.0000000000	0.0000000000	0.0000000000	1.0000000000	0.0000000000	1.0000000000	0.0000000000	0.0000000000
0.6500000000	-188.4396232866	1.0000000000	905.2188834508	1.0000000000	0.0000000000	0.0000000000	0.0000000000	1.0000000000	0.0000000000	1.0000000000	0.0000000000	0.0000000000
0.6600000000	-170.7710869106	1.0000000000	894.2853670223	1.0000000000	0.0000000000	0.0000000000	0.0000000000	1.0000000000	0.0000000000	1.0000000000	0.0000000000	0.0000000000
0.6700000000	-150.3669951439	1.0000000000	868.8523039420	1.0000000000	0.0000000000	0.0000000000	0.0000000000	1.0000000000	0.0000000000	1.0000000000	0.0000000000	0.0000000000
